<?xml version="1.0" encoding="utf-8"?>
<!-- Generator: Adobe Illustrator 18.0.0, SVG Export Plug-In . SVG Version: 6.00 Build 0)  -->
<!DOCTYPE svg PUBLIC "-//W3C//DTD SVG 1.1//EN" "http://www.w3.org/Graphics/SVG/1.1/DTD/svg11.dtd">
<svg version="1.1" xmlns="http://www.w3.org/2000/svg" xmlns:xlink="http://www.w3.org/1999/xlink" x="0px" y="0px"
	 viewBox="0 0 595.3 595.3" enable-background="new 0 0 595.3 595.3" xml:space="preserve">
<g id="Capa_1">
</g>
<g id="Capa_2">
	<g>
		<linearGradient id="SVGID_1_" gradientUnits="userSpaceOnUse" x1="27.9999" y1="295.9316" x2="566.4017" y2="295.9316">
			<stop  offset="8.370536e-02" style="stop-color:#E13D63"/>
			<stop  offset="0.3113" style="stop-color:#DD515F;stop-opacity:0.6875"/>
			<stop  offset="1" style="stop-color:#D07C46;stop-opacity:0"/>
		</linearGradient>
		<path opacity="0.6" fill="url(#SVGID_1_)" d="M294.9,564.6c-38.1,0-76.3,0.6-114.4-0.1C97.2,562.9,30,496.3,28.8,412.9
			c-1.1-77.2-1-154.4,0-231.7C29.8,96.6,96.8,29.5,182.1,28c76.2-1.3,152.5-1.4,228.8-0.1c87.2,1.5,153.3,68,154.6,155
			c1.1,75.3,1.1,150.6,0.1,225.9c-1.2,90-68.6,155.2-159.2,155.8C369.2,564.8,332.1,564.6,294.9,564.6z"/>
		<linearGradient id="SVGID_2_" gradientUnits="userSpaceOnUse" x1="28.7841" y1="373.8907" x2="566.4017" y2="373.8907">
			<stop  offset="0" style="stop-color:#D15E9F"/>
			<stop  offset="1" style="stop-color:#E9A300;stop-opacity:0"/>
		</linearGradient>
		<path opacity="0.8" fill="url(#SVGID_2_)" d="M565.6,182.9c1.1,75.3,1.1,150.6,0.1,225.9c-1.2,90-68.6,155.2-159.2,155.8
			c-37.2,0.2-74.4,0-111.5,0c-38.1,0-76.3,0.6-114.4-0.1C97.2,562.9,30,496.3,28.8,412.9"/>
	</g>
	<g>
		<path fill="#FFFFFF" d="M475.4,295.9c0,25-0.5,50.1,0.1,75.2c1.1,44.3-26.8,78.5-62.2,93.8c-14.2,6.1-29.2,9.3-44.7,9.3
			c-48.4,0.1-96.9,0.7-145.3-0.2c-36.5-0.7-66.5-16-88-46c-11.3-15.8-16.7-33.8-16.7-53.3c0-51.6,0-103.1,0-154.6
			c0-42.1,20.5-71.5,56.9-90.6c15.8-8.3,33-11.8,50.9-11.9c47,0,94-0.3,141,0.1c36.5,0.3,66.9,14.2,89.3,43.6
			c12.5,16.4,18.6,35.2,18.6,56C475.4,243.4,475.4,269.6,475.4,295.9z M145.3,295.9c0,26.4,0,52.7,0,79.1c0,11.8,2.7,22.9,8.8,32.9
			c16,26.2,40.3,39.1,70.3,39.6c48.3,0.7,96.6,0.3,144.9,0.1c11.9,0,23.4-2.4,34.1-7.6c29.2-14,45.5-36.2,45.4-69.5
			c-0.3-51.1-0.1-102.1-0.1-153.2c0-14.5-4.1-27.7-12.7-39.3c-16.5-22.4-39.4-33.4-66.7-33.7c-48.2-0.6-96.4-0.2-144.6-0.1
			c-10.3,0-20.2,2.1-29.8,5.7c-26.5,9.9-51.1,34.8-49.9,71.6C146,246.2,145.3,271.1,145.3,295.9z"/>
		<path fill="#FFFFFF" d="M297.5,372.1c-46.4,0-83.8-37-83.9-83c-0.1-45.3,37.6-82.4,83.7-82.4c46.2-0.1,83.8,37,83.9,82.6
			C381.2,334.9,343.8,372,297.5,372.1z M297.5,345.5c31.6,0,57.2-25.2,57.1-56.3c-0.1-30.8-25.7-56-57.1-56
			c-31.6,0-57.3,25.1-57.3,56.1C240.3,320.4,265.9,345.6,297.5,345.5z"/>
		<path fill="#FFFFFF" d="M390.9,181.5c9.7,0,17.6,8.3,17.6,18.4c-0.1,10.1-8.1,18.3-17.8,18.3c-9.6-0.1-17.4-8.3-17.4-18.2
			C373.3,189.9,381.2,181.5,390.9,181.5z"/>
	</g>
</g>
</svg>
