<?xml version="1.0" encoding="utf-8"?>
<!-- Generator: Adobe Illustrator 18.0.0, SVG Export Plug-In . SVG Version: 6.00 Build 0)  -->
<!DOCTYPE svg PUBLIC "-//W3C//DTD SVG 1.1//EN" "http://www.w3.org/Graphics/SVG/1.1/DTD/svg11.dtd">
<svg version="1.1" xmlns="http://www.w3.org/2000/svg" xmlns:xlink="http://www.w3.org/1999/xlink" x="0px" y="0px"
	 viewBox="0 0 595.3 595.3" enable-background="new 0 0 595.3 595.3" xml:space="preserve">
<g id="Capa_1">
</g>
<g id="Capa_2">
	<linearGradient id="SVGID_1_" gradientUnits="userSpaceOnUse" x1="27.9999" y1="294.6431" x2="563.8222" y2="294.6431">
		<stop  offset="0" style="stop-color:#E53112"/>
		<stop  offset="1" style="stop-color:#2581C4;stop-opacity:0"/>
	</linearGradient>
	<path opacity="0.6" fill="url(#SVGID_1_)" d="M293.6,562.1c-38,0-75.9,0.6-113.9-0.1c-82.9-1.6-149.8-67.9-151-150.9
		c-1.1-76.8-1-153.7,0-230.5C29.8,96.3,96.5,29.5,181.4,28c75.9-1.3,151.8-1.4,227.7-0.1c86.7,1.5,152.6,67.7,153.9,154.2
		c1.1,74.9,1.1,149.9,0.1,224.9c-1.2,89.6-68.2,154.5-158.5,155C367.6,562.2,330.6,562.1,293.6,562.1z"/>
	<linearGradient id="SVGID_2_" gradientUnits="userSpaceOnUse" x1="28.7803" y1="372.2287" x2="563.8222" y2="372.2287">
		<stop  offset="0" style="stop-color:#D42C16;stop-opacity:0.6"/>
		<stop  offset="1" style="stop-color:#AA4317;stop-opacity:0"/>
	</linearGradient>
	<path opacity="0.8" fill="url(#SVGID_2_)" d="M563,182.2c1.1,74.9,1.1,149.9,0.1,224.9c-1.2,89.6-68.2,154.5-158.5,155
		c-37,0.2-74,0-111,0c-38,0-75.9,0.6-113.9-0.1c-82.9-1.6-149.8-67.9-151-150.9"/>
	<g>
		<g id="layer1_1_" transform="translate(0,-1020.3621)">
			<g id="g7827_2_">
				<path id="path5220_3_" fill="#FFFFFF" d="M434.9,1176.4l-138.6,114.1l-138.6-114.1H434.9z"/>
			</g>
		</g>
		<g id="g7827_1_">
			<path id="path5220_2_" fill="#FFFFFF" d="M434.9,433.2H157.7"/>
			<path id="path5220_1_" fill="#FFFFFF" d="M157.7,433.2V213.1l138.6,114.1l138.6-114.1v220.1H157.7z"/>
		</g>
		<path fill="none" stroke="#FFFFFF" stroke-width="9.2862" stroke-miterlimit="10" d="M475.5,429H116.3c-4.4,0-7.9-3.6-7.9-7.9
			V168.4c0-4.4,3.6-7.9,7.9-7.9h359.2c4.4,0,7.9,3.6,7.9,7.9V421C483.4,425.4,479.9,429,475.5,429z"/>
	</g>
</g>
</svg>
