<?xml version="1.0" encoding="utf-8"?>
<!-- Generator: Adobe Illustrator 18.0.0, SVG Export Plug-In . SVG Version: 6.00 Build 0)  -->
<!DOCTYPE svg PUBLIC "-//W3C//DTD SVG 1.1//EN" "http://www.w3.org/Graphics/SVG/1.1/DTD/svg11.dtd">
<svg version="1.1" xmlns="http://www.w3.org/2000/svg" xmlns:xlink="http://www.w3.org/1999/xlink" x="0px" y="0px"
	 viewBox="0 0 595.3 595.3" enable-background="new 0 0 595.3 595.3" xml:space="preserve">
<g id="Capa_1">
</g>
<g id="Capa_2">
	<g>
		<linearGradient id="SVGID_1_" gradientUnits="userSpaceOnUse" x1="26.3274" y1="295.6432" x2="564.1517" y2="295.6432">
			<stop  offset="0" style="stop-color:#61C4E3"/>
			<stop  offset="1" style="stop-color:#45C1F1;stop-opacity:0"/>
		</linearGradient>
		<path opacity="0.6" fill="url(#SVGID_1_)" d="M292.9,564.1c-38.1,0-76.2,0.6-114.3-0.1c-83.2-1.6-150.4-68.2-151.5-151.4
			c-1.1-77.1-1-154.3,0-231.4C28.1,96.6,95.1,29.5,180.3,28c76.2-1.3,152.4-1.4,228.5-0.1c87.1,1.5,153.2,67.9,154.5,154.8
			c1.1,75.2,1.1,150.5,0.1,225.7c-1.2,89.9-68.5,155.1-159,155.6C367.2,564.2,330.1,564.1,292.9,564.1z"/>
		<linearGradient id="SVGID_2_" gradientUnits="userSpaceOnUse" x1="27.1107" y1="373.5186" x2="564.1517" y2="373.5186">
			<stop  offset="0" style="stop-color:#00AEE3"/>
			<stop  offset="1" style="stop-color:#BAE2F4;stop-opacity:0"/>
		</linearGradient>
		<path opacity="0.8" fill="url(#SVGID_2_)" d="M563.3,182.8c1.1,75.2,1.1,150.5,0.1,225.7c-1.2,89.9-68.5,155.1-159,155.6
			c-37.1,0.2-74.3,0-111.4,0c-38.1,0-76.2,0.6-114.3-0.1c-83.2-1.6-150.4-68.2-151.5-151.4"/>
	</g>
	<path fill="none" stroke="#FFFFFF" stroke-width="18.6418" stroke-miterlimit="10" d="M420.2,171.1
		c-31.9-31.9-75.9-51.6-124.5-51.6c-5.5,0-11.1,0.3-16.7,0.8c-5,0.5-9.9,1.1-14.6,2c-19.6-16.4-44-24.2-68.1-23.4
		c-24.6,0.9-49,10.7-67.8,29.4c-18.8,18.8-28.6,43.1-29.4,67.8c-0.8,24.1,7,48.5,23.4,68.1c-0.9,4.8-1.5,9.6-2,14.6
		c-0.5,5.6-0.8,11.2-0.8,16.7c0,48.6,19.7,92.7,51.6,124.5C203,452,247,471.8,295.6,471.8c5.5,0,11.1-0.3,16.7-0.8
		c5-0.5,9.9-1.1,14.6-2c19.6,16.4,44,24.2,68.1,23.4c24.6-0.9,49-10.7,67.8-29.4c18.8-18.8,28.6-43.1,29.4-67.8
		c0.8-24.1-7-48.5-23.4-68.1c0.9-4.8,1.5-9.6,2-14.6c0.5-5.6,0.8-11.2,0.8-16.7C471.7,247,452,203,420.2,171.1L420.2,171.1z"/>
	<path fill="none" stroke="#FFFFFF" stroke-width="9.3209" stroke-miterlimit="10" d="M380.2,232.6c0-14.1-10.7-25.6-27-33.8
		c-16.9-8.4-40.2-13.2-63.2-13.2c-40.9,0-88.7,18.1-88.7,67.1c0,20.3,6.9,34.1,18.3,44c11.1,9.6,26.2,15.3,43.2,19.5h0l33.1,8.1l0,0
		l3,0.7c16.3,4.1,26.3,6.5,26.3,16.8c0,4.4-2.6,8.3-7.2,11.2c-5,3.1-12.3,5-21.4,5c-21.9,0-32.2-10.5-41.1-19.6
		c-7.9-8.1-14.9-15.2-27.2-15.2c-8.6,0-15,2.9-19.5,7.6c-5.1,5.2-7.4,12.5-7.4,20.2c0,15.5,11.4,29.4,29.7,39.3
		c17.6,9.5,41.6,15.4,67.8,15.4c23.8,0,48.2-6.5,65.8-20c15.2-11.8,25.2-28.7,25.2-51.3c0-21.3-10.3-35.6-24.9-45.6
		c-14.1-9.6-32.1-14.9-48.5-18.7l-23.5-5.4h0c-8.4-1.9-15.6-3.5-20.5-6.2c-4-2.1-6.3-5.1-6.3-9.8c0-4.1,2.2-7.1,6.1-9.2
		c5-2.7,12.7-4,22.1-4c18.3,0,26.6,7.5,34,14.1c6.9,6.2,13,11.7,24.3,11.7l0,0c8.6,0,15.6-3.4,20.4-8.8
		C377.6,247.3,380.2,240.1,380.2,232.6L380.2,232.6z"/>
</g>
</svg>
