<?xml version="1.0" encoding="utf-8"?>
<!-- Generator: Adobe Illustrator 18.0.0, SVG Export Plug-In . SVG Version: 6.00 Build 0)  -->
<!DOCTYPE svg PUBLIC "-//W3C//DTD SVG 1.1//EN" "http://www.w3.org/Graphics/SVG/1.1/DTD/svg11.dtd">
<svg version="1.1" xmlns="http://www.w3.org/2000/svg" xmlns:xlink="http://www.w3.org/1999/xlink" x="0px" y="0px"
	 viewBox="0 0 595.3 595.3" enable-background="new 0 0 595.3 595.3" xml:space="preserve">
<g id="Capa_1">
</g>
<g id="Capa_2">
	<g>
		<linearGradient id="SVGID_1_" gradientUnits="userSpaceOnUse" x1="27.9999" y1="295.6432" x2="565.8242" y2="295.6432">
			<stop  offset="0" style="stop-color:#58A4DA"/>
			<stop  offset="1" style="stop-color:#2581C4;stop-opacity:0"/>
		</linearGradient>
		<path opacity="0.6" fill="url(#SVGID_1_)" d="M294.6,564.1c-38.1,0-76.2,0.6-114.3-0.1C97.1,562.3,30,495.8,28.8,412.5
			c-1.1-77.1-1-154.3,0-231.4C29.8,96.6,96.7,29.5,182,28c76.2-1.3,152.4-1.4,228.5-0.1c87.1,1.5,153.2,67.9,154.5,154.8
			c1.1,75.2,1.1,150.5,0.1,225.7c-1.2,89.9-68.5,155.1-159,155.6C368.9,564.2,331.7,564.1,294.6,564.1z"/>
		<linearGradient id="SVGID_2_" gradientUnits="userSpaceOnUse" x1="28.7832" y1="373.5186" x2="565.8242" y2="373.5186">
			<stop  offset="0" style="stop-color:#7EB7D0"/>
			<stop  offset="1" style="stop-color:#2581C4;stop-opacity:0"/>
		</linearGradient>
		<path opacity="0.8" fill="url(#SVGID_2_)" d="M565,182.8c1.1,75.2,1.1,150.5,0.1,225.7c-1.2,89.9-68.5,155.1-159,155.6
			c-37.1,0.2-74.3,0-111.4,0c-38.1,0-76.2,0.6-114.3-0.1C97.1,562.3,30,495.8,28.8,412.5"/>
	</g>
	<g>
		<path fill="#FFFFFF" d="M393.8,205.9L205.2,319.4c-3.2,1.9-4.6,5.7-3.5,9.2l24.6,88.1c0.8,2.4,4.3,2.2,4.6-0.5l5.4-60.8
			c0.3-4.6,2.4-8.9,5.9-11.9l154.1-134.3C397.9,207.5,395.7,204.6,393.8,205.9z"/>
		<path fill="none" stroke="#FFFFFF" stroke-width="19.5437" stroke-miterlimit="10" d="M491.7,141.6l-69.2,314.4
			c-2.4,10.5-14.9,14.9-23.2,8.1l-81.1-64.3c-5.9-4.9-14.9-4.1-20,1.9l-41.6,48.1c-7.3,8.7-21.4,5.7-24.6-4.9l-36.8-113.3
			c-1.6-4.6-5.4-8.4-10-9.5l-72.7-19.2c-13.2-3.5-14.6-21.9-1.9-27.3L472,125.1C482.8,120.7,494.2,130.2,491.7,141.6z"/>
	</g>
</g>
</svg>
